<svg id="visual" viewBox="0 0 900 600" width="900" height="600" xmlns="http://www.w3.org/2000/svg" xmlns:xlink="http://www.w3.org/1999/xlink" version="1.1"><rect x="0" y="0" width="900" height="600" fill="#000000"></rect><g transform="translate(482.6918043140898 270.613679548725)"><path d="M142 -168.1C173.8 -142.5 182.4 -88.1 190.6 -34.7C198.7 18.7 206.3 71.1 190.6 121.2C175 171.3 136.1 219.1 85.3 240C34.5 260.9 -28 255 -81.8 232.2C-135.5 209.3 -180.3 169.7 -214.5 119.5C-248.6 69.3 -272 8.6 -263.3 -47.4C-254.6 -103.4 -213.8 -154.7 -164.5 -177.3C-115.3 -199.9 -57.6 -193.7 -1.3 -192.2C55.1 -190.6 110.1 -193.8 142 -168.1" fill="#ffffff"></path></g></svg>