<svg id="visual" viewBox="0 0 900 600" width="900" height="600" xmlns="http://www.w3.org/2000/svg" xmlns:xlink="http://www.w3.org/1999/xlink" version="1.1"><rect x="0" y="0" width="900" height="600" fill="#000000"></rect><g transform="translate(448.3272539591111 289.3258376357627)"><path d="M170.2 -197.7C219.1 -161.8 256.3 -106.8 266.2 -47.4C276.2 12 258.9 75.8 226.8 130.6C194.7 185.4 147.8 231.3 90.9 253.8C34 276.3 -32.9 275.3 -87.7 251C-142.4 226.7 -184.9 179 -217.4 124.6C-250 70.1 -272.7 9 -263.7 -47.2C-254.6 -103.4 -213.8 -154.7 -164.5 -190.6C-115.3 -226.4 -57.6 -246.7 1.5 -248.5C60.6 -250.3 121.3 -233.5 170.2 -197.7" fill="#ffffff"></path></g></svg>